<svg width="65" height="47" viewBox="0 0 65 47" fill="none" xmlns="http://www.w3.org/2000/svg">
<path d="M2.81971 6.34498C1.5463 6.22111 0.329627 5.15186 0.0531385 3.8307C-0.203976 2.58186 0.498466 1.15342 1.63104 0.462374C2.71067 -0.136966 4.05641 -0.0324727 5.2575 0.110779C10.1536 0.736728 14.8482 2.34681 19.5236 3.88456C24.3823 5.5282 29.2603 7.24417 33.8208 9.51033C42.5219 13.9226 49.9717 20.608 55.3205 28.709C55.1782 26.7317 53.4785 25.0168 53.6255 22.962C53.6913 21.4716 54.8135 20.1633 55.8298 19.0383C56.0803 18.8161 56.3838 18.5023 56.6589 18.6611C56.8229 18.6947 56.9533 18.8923 57.0644 19.0175C60.0895 23.943 61.6733 29.5647 63.1849 35.2057C64.115 38.6772 64.8722 42.66 62.7776 45.5467C62.1371 46.3384 61.2409 47.0437 60.2038 46.934C59.7311 46.9056 59.292 46.7132 58.9058 46.4291C51.3051 42.6522 43.7238 38.9476 36.1231 35.1706C35.5923 34.9253 34.9698 34.627 34.7424 34.0678C34.1624 33.0605 34.8507 31.8684 35.5442 30.985C36.1653 30.1209 36.9117 29.1458 37.9965 28.8551C38.9367 28.6032 39.9789 29.0215 40.8572 29.4063C44.7176 31.0849 48.4863 32.7106 52.3467 34.3892C48.588 29.0402 44.4147 23.8798 39.264 19.989C33.1381 15.3518 25.7893 12.515 18.4651 10.0592C13.2448 8.51249 8.09676 6.94636 2.81971 6.34498ZM39.102 13.5987C38.6577 13.0977 38.1604 12.6883 37.5379 12.39C37.3545 12.2841 37.0988 12.1976 36.8818 12.2558C37.4566 12.9544 38.2625 13.3586 39.102 13.5987ZM39.6186 14.0804C39.8408 14.3309 40.1882 14.4704 40.5886 14.5181C40.3806 14.0312 39.9027 13.6942 39.43 13.6658C39.2518 13.8686 39.4546 14.0468 39.6186 14.0804ZM42.5388 16.0109C42.2056 15.6351 41.8 15.2787 41.308 15.178C41.5883 15.6455 42.0662 15.9825 42.5776 16.1556L42.5388 16.0109Z" fill="#E7E7EC"/>
</svg>
