<svg width="51" height="55" viewBox="0 0 51 55" fill="none" xmlns="http://www.w3.org/2000/svg">
<mask id="path-1-outside-1_45_86" maskUnits="userSpaceOnUse" x="-5.20534" y="-1.71985" width="60.5653" height="58.8556" fill="black">
<rect fill="white" x="-5.20534" y="-1.71985" width="60.5653" height="58.8556"/>
<path d="M36.3432 17.0764L42.131 16.2826C42.7235 16.2013 43.0219 16.3461 43.0719 16.7107C43.0907 16.8474 43.0701 17.036 43.004 17.2307L42.2959 20.5316C42.1824 21.0579 41.8491 21.3358 41.3478 21.4045L35.1042 22.2609L33.4772 29.3558L40.3588 28.4119C40.9513 28.3306 41.2497 28.4754 41.2997 28.84C41.3185 28.9767 41.2979 29.1653 41.2318 29.3601L40.5237 32.6609C40.4102 33.1872 40.0769 33.4651 39.5756 33.5339L32.2838 34.534L29.9775 44.4615C29.8639 44.9878 29.5306 45.2657 29.0293 45.3344L24.7516 45.9676C24.2048 46.0426 23.9063 45.8978 23.8501 45.4876C23.8313 45.3509 23.8581 45.2079 23.8787 45.0194L26.1314 35.3778L19.9335 36.228L17.6271 46.1554C17.5135 46.6818 17.1802 46.9596 16.6789 47.0284L12.4013 47.6615C11.8544 47.7365 11.5559 47.5918 11.4997 47.1816C11.4809 47.0449 11.5078 46.9019 11.5283 46.7134L13.7811 37.0718L7.94767 37.8719C7.35522 37.9532 7.05678 37.8084 7.00677 37.4438C6.98802 37.3071 7.00859 37.1185 7.07473 36.9237L7.78276 33.6229C7.89629 33.0966 8.22962 32.8187 8.73093 32.75L14.9745 31.8936L16.647 24.7925L9.71989 25.7426C9.12744 25.8238 8.82899 25.6791 8.77899 25.3145C8.76023 25.1778 8.7808 24.9892 8.84695 24.7944L9.55497 21.4936C9.66851 20.9673 10.0018 20.6894 10.5031 20.6206L17.8405 19.6143L20.027 10.1675C20.1406 9.6412 20.4739 9.36332 20.9752 9.29456L25.2135 8.71324C25.7604 8.63823 26.0589 8.78301 26.1151 9.19317C26.1339 9.3299 26.107 9.47287 26.0865 9.66141L23.9929 18.7704L30.1908 17.9203L32.3774 8.47353C32.4909 7.94722 32.8243 7.66935 33.3256 7.60059L37.5639 7.01927C38.1108 6.94426 38.4092 7.08904 38.4655 7.4992C38.4842 7.63592 38.4574 7.7789 38.4368 7.96744L36.3432 17.0764ZM28.9974 23.0985L22.7539 23.9549L21.1269 31.0497L27.3248 30.1996L28.9974 23.0985Z"/>
</mask>
<path d="M36.3432 17.0764L42.131 16.2826C42.7235 16.2013 43.0219 16.3461 43.0719 16.7107C43.0907 16.8474 43.0701 17.036 43.004 17.2307L42.2959 20.5316C42.1824 21.0579 41.8491 21.3358 41.3478 21.4045L35.1042 22.2609L33.4772 29.3558L40.3588 28.4119C40.9513 28.3306 41.2497 28.4754 41.2997 28.84C41.3185 28.9767 41.2979 29.1653 41.2318 29.3601L40.5237 32.6609C40.4102 33.1872 40.0769 33.4651 39.5756 33.5339L32.2838 34.534L29.9775 44.4615C29.8639 44.9878 29.5306 45.2657 29.0293 45.3344L24.7516 45.9676C24.2048 46.0426 23.9063 45.8978 23.8501 45.4876C23.8313 45.3509 23.8581 45.2079 23.8787 45.0194L26.1314 35.3778L19.9335 36.228L17.6271 46.1554C17.5135 46.6818 17.1802 46.9596 16.6789 47.0284L12.4013 47.6615C11.8544 47.7365 11.5559 47.5918 11.4997 47.1816C11.4809 47.0449 11.5078 46.9019 11.5283 46.7134L13.7811 37.0718L7.94767 37.8719C7.35522 37.9532 7.05678 37.8084 7.00677 37.4438C6.98802 37.3071 7.00859 37.1185 7.07473 36.9237L7.78276 33.6229C7.89629 33.0966 8.22962 32.8187 8.73093 32.75L14.9745 31.8936L16.647 24.7925L9.71989 25.7426C9.12744 25.8238 8.82899 25.6791 8.77899 25.3145C8.76023 25.1778 8.7808 24.9892 8.84695 24.7944L9.55497 21.4936C9.66851 20.9673 10.0018 20.6894 10.5031 20.6206L17.8405 19.6143L20.027 10.1675C20.1406 9.6412 20.4739 9.36332 20.9752 9.29456L25.2135 8.71324C25.7604 8.63823 26.0589 8.78301 26.1151 9.19317C26.1339 9.3299 26.107 9.47287 26.0865 9.66141L23.9929 18.7704L30.1908 17.9203L32.3774 8.47353C32.4909 7.94722 32.8243 7.66935 33.3256 7.60059L37.5639 7.01927C38.1108 6.94426 38.4092 7.08904 38.4655 7.4992C38.4842 7.63592 38.4574 7.7789 38.4368 7.96744L36.3432 17.0764ZM28.9974 23.0985L22.7539 23.9549L21.1269 31.0497L27.3248 30.1996L28.9974 23.0985Z" fill="#F0C651"/>
<path d="M36.3432 17.0764L29.5211 15.5084L27.2501 25.3892L37.2944 24.0115L36.3432 17.0764ZM43.004 17.2307L36.3757 14.9801L36.2449 15.3651L36.1597 15.7626L43.004 17.2307ZM42.2959 20.5316L49.1386 22.0077L49.1403 21.9997L42.2959 20.5316ZM35.1042 22.2609L34.153 15.3258L29.3622 15.9829L28.2813 20.6963L35.1042 22.2609ZM33.4772 29.3558L26.6543 27.7912L24.3895 37.6678L34.4285 36.2908L33.4772 29.3558ZM41.2318 29.3601L34.6034 27.1094L34.4727 27.4944L34.3874 27.892L41.2318 29.3601ZM40.5237 32.6609L47.3663 34.137L47.368 34.129L40.5237 32.6609ZM32.2838 34.534L31.3326 27.5989L26.5564 28.254L25.4654 32.9499L32.2838 34.534ZM29.9775 44.4615L23.159 42.8774L23.1465 42.9313L23.1348 42.9854L29.9775 44.4615ZM29.0293 45.3344L28.0781 38.3993L28.0412 38.4044L28.0043 38.4099L29.0293 45.3344ZM24.7516 45.9676L25.7028 52.9026L25.7397 52.8976L25.7766 52.8921L24.7516 45.9676ZM23.8787 45.0194L17.0623 43.4268L16.9659 43.8392L16.92 44.2602L23.8787 45.0194ZM26.1314 35.3778L32.9478 36.9705L35.2635 27.0598L25.1802 28.4428L26.1314 35.3778ZM19.9335 36.228L18.9822 29.2929L14.206 29.948L13.115 34.6439L19.9335 36.228ZM17.6271 46.1554L10.8087 44.5714L10.7961 44.6253L10.7845 44.6794L17.6271 46.1554ZM16.6789 47.0284L15.7277 40.0933L15.6908 40.0984L15.654 40.1038L16.6789 47.0284ZM12.4013 47.6615L13.3525 54.5966L13.3894 54.5915L13.4262 54.5861L12.4013 47.6615ZM11.5283 46.7134L4.71191 45.1207L4.61555 45.5331L4.56962 45.9542L11.5283 46.7134ZM13.7811 37.0718L20.5975 38.6645L22.9131 28.7537L12.8298 30.1367L13.7811 37.0718ZM7.07473 36.9237L13.703 39.1744L13.8338 38.7894L13.919 38.3918L7.07473 36.9237ZM7.78276 33.6229L0.94015 32.1468L0.938441 32.1548L7.78276 33.6229ZM14.9745 31.8936L15.9257 38.8287L20.6864 38.1757L21.788 33.4984L14.9745 31.8936ZM16.647 24.7925L23.4606 26.3973L25.7984 16.4717L15.6958 17.8574L16.647 24.7925ZM8.84695 24.7944L15.4753 27.0451L15.606 26.6601L15.6913 26.2625L8.84695 24.7944ZM9.55497 21.4936L2.71237 20.0175L2.71066 20.0255L9.55497 21.4936ZM17.8405 19.6143L18.7917 26.5493L23.5721 25.8937L24.6602 21.1928L17.8405 19.6143ZM20.027 10.1675L26.8467 11.746L26.8586 11.6949L26.8696 11.6436L20.027 10.1675ZM26.0865 9.66141L32.9086 11.2294L33.0006 10.829L33.0452 10.4206L26.0865 9.66141ZM23.9929 18.7704L17.1707 17.2024L14.8997 27.0831L24.9441 25.7055L23.9929 18.7704ZM30.1908 17.9203L31.142 24.8554L35.9224 24.1997L37.0105 19.4988L30.1908 17.9203ZM32.3774 8.47353L39.1971 10.0521L39.2089 10.0009L39.22 9.94961L32.3774 8.47353ZM38.4368 7.96744L45.259 9.53545L45.351 9.13503L45.3956 8.72661L38.4368 7.96744ZM28.9974 23.0985L35.811 24.7033L38.1488 14.7778L28.0462 16.1634L28.9974 23.0985ZM22.7539 23.9549L21.8026 17.0198L17.0118 17.6769L15.931 22.3902L22.7539 23.9549ZM21.1269 31.0497L14.304 29.4851L12.0391 39.3618L22.0781 37.9848L21.1269 31.0497ZM27.3248 30.1996L28.2761 37.1347L33.0367 36.4817L34.1384 31.8045L27.3248 30.1996ZM36.3432 17.0764L37.2944 24.0115L43.0822 23.2176L42.131 16.2826L41.1798 9.34751L35.392 10.1414L36.3432 17.0764ZM42.131 16.2826L43.0822 23.2176C42.9101 23.2413 41.526 23.45 39.8677 22.6834C38.9194 22.245 37.9704 21.5237 37.2426 20.4786C36.5358 19.4636 36.2436 18.4403 36.1369 17.6619L43.0719 16.7107L50.007 15.7595C49.7004 13.5239 48.3343 11.1738 45.7421 9.97547C43.774 9.0657 41.9444 9.24264 41.1798 9.34751L42.131 16.2826ZM43.0719 16.7107L36.1369 17.6619C36.0464 17.0022 36.0768 16.4576 36.1238 16.0812C36.1736 15.6821 36.2619 15.3151 36.3757 14.9801L43.004 17.2307L49.6323 19.4814C49.9537 18.5348 50.2086 17.2295 50.007 15.7595L43.0719 16.7107ZM43.004 17.2307L36.1597 15.7626L35.4516 19.0635L42.2959 20.5316L49.1403 21.9997L49.8483 18.6989L43.004 17.2307ZM42.2959 20.5316L35.4533 19.0555C35.6485 18.1506 36.1626 16.9441 37.2902 15.9314C38.3954 14.939 39.5923 14.5798 40.3966 14.4694L41.3478 21.4045L42.299 28.3396C43.6046 28.1605 45.2188 27.628 46.6443 26.3478C48.0923 25.0475 48.8298 23.4388 49.1386 22.0077L42.2959 20.5316ZM41.3478 21.4045L40.3966 14.4694L34.153 15.3258L35.1042 22.2609L36.0554 29.196L42.299 28.3396L41.3478 21.4045ZM35.1042 22.2609L28.2813 20.6963L26.6543 27.7912L33.4772 29.3558L40.3001 30.9204L41.9271 23.8255L35.1042 22.2609ZM33.4772 29.3558L34.4285 36.2908L41.31 35.347L40.3588 28.4119L39.4076 21.4768L32.526 22.4207L33.4772 29.3558ZM40.3588 28.4119L41.31 35.347C41.1379 35.3706 39.7538 35.5793 38.0955 34.8127C37.1472 34.3744 36.1981 33.6531 35.4704 32.6079C34.7636 31.5929 34.4714 30.5696 34.3646 29.7912L41.2997 28.84L48.2348 27.8888C47.9282 25.6533 46.5621 23.3031 43.9699 22.1048C42.0018 21.195 40.1722 21.372 39.4076 21.4768L40.3588 28.4119ZM41.2997 28.84L34.3646 29.7912C34.2742 29.1316 34.3045 28.5869 34.3516 28.2105C34.4014 27.8114 34.4897 27.4444 34.6034 27.1094L41.2318 29.3601L47.8601 31.6107C48.1815 30.6641 48.4364 29.3589 48.2348 27.8888L41.2997 28.84ZM41.2318 29.3601L34.3874 27.892L33.6794 31.1928L40.5237 32.6609L47.368 34.129L48.0761 30.8282L41.2318 29.3601ZM40.5237 32.6609L33.6811 31.1848C33.8763 30.2799 34.3904 29.0734 35.518 28.0608C36.6232 27.0683 37.8201 26.7091 38.6243 26.5988L39.5756 33.5339L40.5268 40.4689C41.8324 40.2898 43.4465 39.7573 44.8721 38.4771C46.3201 37.1768 47.0576 35.5682 47.3663 34.137L40.5237 32.6609ZM39.5756 33.5339L38.6243 26.5988L31.3326 27.5989L32.2838 34.534L33.235 41.4691L40.5268 40.4689L39.5756 33.5339ZM32.2838 34.534L25.4654 32.9499L23.159 42.8774L29.9775 44.4615L36.7959 46.0455L39.1022 36.118L32.2838 34.534ZM29.9775 44.4615L23.1348 42.9854C23.33 42.0805 23.8441 40.874 24.9717 39.8613C26.0769 38.8689 27.2738 38.5097 28.0781 38.3993L29.0293 45.3344L29.9805 52.2695C31.2861 52.0904 32.9003 51.5579 34.3258 50.2777C35.7738 48.9774 36.5113 47.3687 36.8201 45.9375L29.9775 44.4615ZM29.0293 45.3344L28.0043 38.4099L23.7267 39.043L24.7516 45.9676L25.7766 52.8921L30.0542 52.259L29.0293 45.3344ZM24.7516 45.9676L23.8004 39.0325C24.0552 38.9976 25.588 38.7837 27.3492 39.7005C28.3345 40.2134 29.213 40.9938 29.8496 41.9978C30.457 42.9558 30.695 43.8791 30.7851 44.5364L23.8501 45.4876L16.915 46.4388C17.1792 48.3653 18.2902 50.768 20.8845 52.1185C22.9457 53.1916 24.9012 53.0126 25.7028 52.9026L24.7516 45.9676ZM23.8501 45.4876L30.7851 44.5364C30.8796 45.2249 30.8347 45.7542 30.821 45.9055C30.8139 45.984 30.8068 46.038 30.8117 45.9979C30.8133 45.9847 30.8262 45.881 30.8374 45.7786L23.8787 45.0194L16.92 44.2602C16.9209 44.2521 16.9227 44.2369 16.9141 44.3078C16.9087 44.3519 16.8923 44.4855 16.8783 44.6404C16.8507 44.9444 16.8018 45.6136 16.915 46.4388L23.8501 45.4876ZM23.8787 45.0194L30.6951 46.612L32.9478 36.9705L26.1314 35.3778L19.315 33.7852L17.0623 43.4268L23.8787 45.0194ZM26.1314 35.3778L25.1802 28.4428L18.9822 29.2929L19.9335 36.228L20.8847 43.163L27.0826 42.3129L26.1314 35.3778ZM19.9335 36.228L13.115 34.6439L10.8087 44.5714L17.6271 46.1554L24.4455 47.7395L26.7519 37.812L19.9335 36.228ZM17.6271 46.1554L10.7845 44.6794C10.9797 43.7745 11.4938 42.5679 12.6214 41.5553C13.7266 40.5628 14.9234 40.2036 15.7277 40.0933L16.6789 47.0284L17.6301 53.9635C18.9357 53.7844 20.5499 53.2519 21.9755 51.9717C23.4234 50.6714 24.161 49.0627 24.4697 47.6315L17.6271 46.1554ZM16.6789 47.0284L15.654 40.1038L11.3763 40.737L12.4013 47.6615L13.4262 54.5861L17.7038 53.9529L16.6789 47.0284ZM12.4013 47.6615L11.4501 40.7265C11.7048 40.6915 13.2377 40.4776 14.9989 41.3945C15.9841 41.9074 16.8626 42.6878 17.4992 43.6917C18.1066 44.6498 18.3446 45.5731 18.4348 46.2304L11.4997 47.1816L4.56462 48.1328C4.82884 50.0592 5.93983 52.4619 8.53411 53.8125C10.5953 54.8856 12.5509 54.7066 13.3525 54.5966L12.4013 47.6615ZM11.4997 47.1816L18.4348 46.2304C18.5292 46.9189 18.4843 47.4482 18.4706 47.5995C18.4635 47.678 18.4565 47.7319 18.4613 47.6919C18.4629 47.6787 18.4759 47.5749 18.487 47.4725L11.5283 46.7134L4.56962 45.9542C4.5705 45.9461 4.57236 45.9309 4.56373 46.0018C4.55837 46.0459 4.54195 46.1795 4.5279 46.3344C4.50031 46.6384 4.45143 47.3076 4.56462 48.1328L11.4997 47.1816ZM11.5283 46.7134L18.3447 48.306L20.5975 38.6645L13.7811 37.0718L6.96465 35.4792L4.71191 45.1207L11.5283 46.7134ZM13.7811 37.0718L12.8298 30.1367L6.99646 30.9368L7.94767 37.8719L8.89888 44.807L14.7323 44.0069L13.7811 37.0718ZM7.94767 37.8719L6.99646 30.9368C7.16861 30.9132 8.55274 30.7045 10.211 31.4711C11.1593 31.9095 12.1084 32.6308 12.8361 33.6759C13.5429 34.6909 13.8351 35.7142 13.9418 36.4926L7.00677 37.4438L0.0716993 38.395C0.378327 40.6306 1.74435 42.9807 4.3366 44.179C6.30471 45.0888 8.13429 44.9119 8.89888 44.807L7.94767 37.8719ZM7.00677 37.4438L13.9418 36.4926C14.0323 37.1523 14.0019 37.6969 13.9549 38.0734C13.9051 38.4724 13.8168 38.8394 13.703 39.1744L7.07473 36.9237L0.446423 34.6731C0.125002 35.6197 -0.129935 36.9249 0.0716993 38.395L7.00677 37.4438ZM7.07473 36.9237L13.919 38.3918L14.6271 35.091L7.78276 33.6229L0.938441 32.1548L0.230414 35.4556L7.07473 36.9237ZM7.78276 33.6229L14.6254 35.099C14.4302 36.0039 13.9161 37.2104 12.7885 38.223C11.6833 39.2155 10.4864 39.5747 9.68214 39.685L8.73093 32.75L7.77972 25.8149C6.47413 25.994 4.85995 26.5265 3.43438 27.8067C1.9864 29.107 1.24889 30.7156 0.940155 32.1468L7.78276 33.6229ZM8.73093 32.75L9.68214 39.685L15.9257 38.8287L14.9745 31.8936L14.0233 24.9585L7.77972 25.8149L8.73093 32.75ZM14.9745 31.8936L21.788 33.4984L23.4606 26.3973L16.647 24.7925L9.83348 23.1876L8.16092 30.2888L14.9745 31.8936ZM16.647 24.7925L15.6958 17.8574L8.76868 18.8075L9.71989 25.7426L10.6711 32.6777L17.5982 31.7275L16.647 24.7925ZM9.71989 25.7426L8.76868 18.8075C8.94082 18.7839 10.3249 18.5752 11.9832 19.3418C12.9315 19.7801 13.8806 20.5014 14.6083 21.5465C15.3151 22.5616 15.6073 23.5849 15.7141 24.3633L8.77899 25.3145L1.84392 26.2657C2.15054 28.5012 3.51657 30.8514 6.10883 32.0497C8.07693 32.9595 9.90651 32.7825 10.6711 32.6777L9.71989 25.7426ZM8.77899 25.3145L15.7141 24.3633C15.8045 25.0229 15.7742 25.5676 15.7271 25.944C15.6773 26.3431 15.589 26.7101 15.4753 27.0451L8.84695 24.7944L2.21863 22.5438C1.89722 23.4903 1.64228 24.7956 1.84392 26.2657L8.77899 25.3145ZM8.84695 24.7944L15.6913 26.2625L16.3993 22.9617L9.55497 21.4936L2.71066 20.0255L2.00263 23.3263L8.84695 24.7944ZM9.55497 21.4936L16.3976 22.9697C16.2024 23.8746 15.6883 25.0811 14.5607 26.0937C13.4555 27.0862 12.2586 27.4454 11.4544 27.5557L10.5031 20.6206L9.55194 13.6856C8.24636 13.8646 6.63217 14.3972 5.2066 15.6773C3.75862 16.9777 3.02111 18.5863 2.71237 20.0175L9.55497 21.4936ZM10.5031 20.6206L11.4544 27.5557L18.7917 26.5493L17.8405 19.6143L16.8892 12.6792L9.55194 13.6856L10.5031 20.6206ZM17.8405 19.6143L24.6602 21.1928L26.8467 11.746L20.027 10.1675L13.2073 8.58899L11.0208 18.0357L17.8405 19.6143ZM20.027 10.1675L26.8696 11.6436C26.6744 12.5485 26.1604 13.755 25.0328 14.7676C23.9276 15.7601 22.7307 16.1193 21.9264 16.2296L20.9752 9.29457L20.024 2.35949C18.7184 2.53857 17.1042 3.07108 15.6787 4.35126C14.2307 5.65158 13.4932 7.26022 13.1844 8.69143L20.027 10.1675ZM20.9752 9.29457L21.9264 16.2296L26.1647 15.6483L25.2135 8.71324L24.2623 1.77817L20.024 2.35949L20.9752 9.29457ZM25.2135 8.71324L26.1647 15.6483C25.91 15.6832 24.3771 15.8971 22.6159 14.9803C21.6307 14.4674 20.7522 13.687 20.1156 12.683C19.5082 11.725 19.2702 10.8016 19.18 10.1444L26.1151 9.19317L33.0502 8.24196C32.786 6.31556 31.675 3.91283 29.0807 2.56225C27.0195 1.48921 25.0639 1.66822 24.2623 1.77817L25.2135 8.71324ZM26.1151 9.19317L19.18 10.1444C19.0856 9.45591 19.1305 8.9266 19.1442 8.77532C19.1513 8.69684 19.1583 8.64288 19.1535 8.68293C19.1519 8.69607 19.1389 8.79985 19.1278 8.90224L26.0865 9.66141L33.0452 10.4206C33.0443 10.4287 33.0424 10.4439 33.0511 10.3729C33.0564 10.3289 33.0729 10.1953 33.0869 10.0404C33.1145 9.73632 33.1634 9.06716 33.0502 8.24196L26.1151 9.19317ZM26.0865 9.66141L19.2644 8.0934L17.1707 17.2024L23.9929 18.7704L30.815 20.3384L32.9086 11.2294L26.0865 9.66141ZM23.9929 18.7704L24.9441 25.7055L31.142 24.8554L30.1908 17.9203L29.2396 10.9852L23.0416 11.8353L23.9929 18.7704ZM30.1908 17.9203L37.0105 19.4988L39.1971 10.0521L32.3774 8.47353L25.5577 6.89502L23.3711 16.3418L30.1908 17.9203ZM32.3774 8.47353L39.22 9.94961C39.0248 10.8545 38.5107 12.0611 37.3831 13.0737C36.2779 14.0662 35.0811 14.4253 34.2768 14.5357L33.3256 7.60059L32.3744 0.665524C31.0688 0.844596 29.4546 1.3771 28.029 2.65729C26.581 3.95761 25.8435 5.56626 25.5348 6.99745L32.3774 8.47353ZM33.3256 7.60059L34.2768 14.5357L38.5151 13.9543L37.5639 7.01927L36.6127 0.084198L32.3744 0.665524L33.3256 7.60059ZM37.5639 7.01927L38.5151 13.9543C38.2604 13.9893 36.7275 14.2032 34.9663 13.2863C33.9811 12.7734 33.1026 11.993 32.466 10.9891C31.8586 10.031 31.6206 9.10769 31.5304 8.45041L38.4655 7.4992L45.4006 6.54799C45.1363 4.62156 44.0253 2.21884 41.431 0.86828C39.3698 -0.20476 37.4143 -0.0257512 36.6127 0.084198L37.5639 7.01927ZM38.4655 7.4992L31.5304 8.45041C31.436 7.7619 31.4808 7.23256 31.4946 7.08129C31.5017 7.00281 31.5087 6.94885 31.5038 6.98891C31.5022 7.00208 31.4893 7.10585 31.4781 7.20827L38.4368 7.96744L45.3956 8.72661C45.3947 8.73476 45.3928 8.74996 45.4014 8.67901C45.4068 8.63496 45.4232 8.50137 45.4373 8.34649C45.4649 8.04242 45.5137 7.37323 45.4006 6.54799L38.4655 7.4992ZM38.4368 7.96744L31.6147 6.39943L29.5211 15.5084L36.3432 17.0764L43.1653 18.6444L45.259 9.53545L38.4368 7.96744ZM28.9974 23.0985L28.0462 16.1634L21.8026 17.0198L22.7539 23.9549L23.7051 30.8899L29.9486 30.0336L28.9974 23.0985ZM22.7539 23.9549L15.931 22.3902L14.304 29.4851L21.1269 31.0497L27.9498 32.6144L29.5768 25.5195L22.7539 23.9549ZM21.1269 31.0497L22.0781 37.9848L28.2761 37.1347L27.3248 30.1996L26.3736 23.2646L20.1757 24.1147L21.1269 31.0497ZM27.3248 30.1996L34.1384 31.8045L35.811 24.7033L28.9974 23.0985L22.1838 21.4937L20.5113 28.5948L27.3248 30.1996Z" fill="#0A0B13" mask="url(#path-1-outside-1_45_86)"/>
</svg>
