<svg width="42" height="70" viewBox="0 0 42 70" fill="none" xmlns="http://www.w3.org/2000/svg">
<path d="M40.6528 5.68869C41.6937 4.9447 42.2127 3.41038 41.7916 2.12797C41.3898 0.917882 40.0673 0.0320375 38.7409 -0.000134823C37.5063 0.0206343 36.3931 0.783998 35.4245 1.5086C31.4974 4.49873 28.2367 8.24043 24.9567 11.9098C21.5707 15.7626 18.2042 19.6877 15.3878 23.9305C10.0585 32.1022 6.94947 41.6168 6.36784 51.3068C5.50239 49.5234 6.11694 47.1883 4.96221 45.4824C4.16009 44.2245 2.53406 43.6525 1.09143 43.1864C0.763388 43.1193 0.343646 42.9992 0.184817 43.2743C0.0595525 43.3854 0.045366 43.6218 0.0118016 43.7858C-0.145263 49.5639 1.29394 55.2243 2.80546 60.8654C3.73562 64.3368 5.07135 68.1647 8.32859 69.6173C9.27916 69.9827 10.4079 70.1454 11.2512 69.5318C11.6464 69.2709 11.9305 68.8847 12.1229 68.4456C16.8168 61.3743 21.5301 54.3754 26.2241 47.3041C26.5611 46.8262 26.9511 46.2567 26.8684 45.6587C26.867 44.4964 25.6749 43.8081 24.6326 43.3898C23.6627 42.952 22.5287 42.4807 21.4439 42.7714C20.5037 43.0233 19.8103 43.9068 19.2421 44.6791C16.7382 48.063 14.2872 51.3552 11.7833 54.7391C12.3639 48.2274 13.3979 41.6718 15.9132 35.7268C18.8997 28.648 23.8456 22.5169 28.9607 16.728C32.7082 12.7783 36.3834 8.84802 40.6528 5.68869ZM12.8583 30.1117C12.9926 29.4557 13.2185 28.8525 13.6085 28.2829C13.7144 28.0995 13.8926 27.8968 14.1096 27.8386C13.9611 28.731 13.4653 29.484 12.8583 30.1117ZM12.6517 30.7872C12.5846 31.1152 12.3534 31.4097 12.0306 31.6513C11.9673 31.1256 12.2126 30.5948 12.6078 30.3339C12.8635 30.4204 12.777 30.6761 12.6517 30.7872ZM11.088 33.9192C11.1887 33.4271 11.3617 32.9157 11.7375 32.5824C11.7285 33.1275 11.4832 33.6583 11.1268 34.0638L11.088 33.9192Z" fill="#E7E7EC"/>
</svg>
