<svg width="206" height="421" viewBox="0 0 206 421" fill="none" xmlns="http://www.w3.org/2000/svg">
<path d="M149.928 23.9037C158.731 31.4407 167.245 42.5031 173.097 52.1917C202.868 101.478 208.553 191.522 201.812 234.702C193.027 291 167.833 334.033 130.825 368.003L129.854 368.888C109.419 387.431 85.1672 402.695 57.4131 411.549C18.9771 423.811 -23.6365 426.5 -73.0398 400.259L-73.9683 399.721C-83.5532 394.132 -92.8835 387.81 -101.642 380.165C-126.249 358.693 -140.635 334.684 -149.046 306.884L-149.244 306.226C-165.547 251.62 -146.788 198.975 -126.305 162.262L-125.821 161.397C-120.683 152.263 -114.617 143.748 -108.785 135.198C-71.9099 81.1216 17.0558 -5.7594 97.063 0.84064L98.0036 0.922475C115.538 2.5318 133.325 9.16484 149.928 23.9037ZM166.325 56.2825C160.758 47.0678 152.756 36.7403 144.783 29.9139L144.729 29.8677L144.676 29.8207C129.393 16.254 113.214 10.2646 97.2823 8.80224C60.091 5.38949 19.6411 23.975 -16.8617 51.2775C-52.583 77.9955 -83.2204 112.094 -101.392 138.41L-102.248 139.657L-102.249 139.658C-108.21 148.397 -114.001 156.526 -118.924 165.277C-139.175 201.284 -157.188 251.959 -141.662 303.964C-133.68 330.698 -120.047 353.604 -96.4401 374.203L-96.4395 374.204C-87.9198 381.64 -78.7603 387.814 -69.2065 393.335C-22.1236 418.303 18.1747 415.761 55.007 404.01L55.6377 403.808C82.3039 395.186 105.694 380.328 125.474 362.173L126.309 361.402C161.327 328.964 185.187 288.145 193.792 234.753L193.994 233.48C197.222 212.799 197.529 180.262 193.296 146.726C189.052 113.097 180.373 79.5402 166.325 56.2825Z" fill="#1B1B27"/>
<path d="M153.829 26.2246C155.782 28.2098 157.668 30.2671 159.477 32.3915L159.477 32.3915C190.258 68.3439 198.035 119.714 202.452 155.626L202.87 159.052L202.87 159.052C214.64 256.377 182.21 331.992 120.699 379.198L111.58 384.089L107.083 381.695C89.2444 372.193 77.8331 356.765 69.544 340.597C61.3817 324.676 55.6947 306.789 50.2821 292.714C47.4967 285.471 44.775 279.163 41.7669 273.991C38.7526 268.808 35.6991 265.208 32.4651 262.972C26.8925 259.121 18.1582 257.642 1.14128 266.808L1.13919 266.809C-6.04214 270.675 -13.1626 274.591 -20.2671 278.572L-20.5265 278.717L-20.796 278.843C-28.1014 282.242 -35.3779 285.311 -42.3671 286.973C-49.4261 288.652 -56.7675 289.041 -63.9146 286.471C-78.3196 281.29 -87.8359 265.756 -95.1405 239.767C-96.2194 235.93 -97.4929 230.9 -99.2319 225.95C-101.074 220.708 -102.913 217.189 -104.384 215.721L-104.384 215.721C-106.942 213.169 -109.205 212.536 -111.282 212.568C-113.682 212.604 -116.608 213.564 -119.991 215.566C-126.914 219.663 -132.934 226.311 -136.761 230.186L-153.762 244.846L-150.101 222.839C-140.19 180.042 -116.975 145.668 -93.7161 114.945L-92.8999 113.874C-75.5615 91.2682 -45.5093 61.2955 -11.1142 37.8259C23.5477 14.1744 64.2378 -3.98099 101.478 0.755523C119.874 3.09463 137.096 10.7196 153.565 25.9681L153.7 26.0932L153.829 26.2246ZM153.467 37.5369C151.78 35.5541 150.017 33.6313 148.189 31.7737L147.472 31.1147C132.394 17.3891 116.918 10.6951 100.481 8.60529L99.6765 8.50685C31.2634 0.478216 -54.1654 75.8092 -87.4067 119.721C-110.545 150.286 -132.879 183.543 -142.392 224.626C-135.498 217.645 -114.83 194.122 -98.7955 210.12C-93.0655 215.838 -89.5387 230.457 -87.5227 237.628C-73.0338 289.178 -53.0475 285.123 -24.1359 271.668C-16.9949 267.667 -9.83528 263.73 -2.61231 259.841C70.188 220.626 47.4754 340.465 110.431 374.512L110.802 374.711C170.066 329.229 206.453 254.586 195.015 160.001C190.616 123.653 183.454 72.5623 153.467 37.5369Z" fill="#1B1B27"/>
<path d="M146.913 94.5469C172.775 117.204 174.43 161.27 166.033 180.509C160.257 193.743 146.024 208.621 125.902 193.468L125.532 193.11C94.3757 162.535 99.9701 61.0201 146.363 94.1496L146.913 94.5469ZM161.507 140.057C159.112 125.068 152.9 110.459 141.966 100.734C136.936 97.1032 133.136 95.7851 130.476 95.5426C127.991 95.3162 126.038 95.9699 124.239 97.4024C120.06 100.728 116.302 108.711 114.711 120.776C113.18 132.396 113.908 146.074 116.89 158.569C119.856 170.997 124.819 181.303 131.038 187.427C135.044 190.368 138.307 191.531 140.825 191.844C143.364 192.16 145.623 191.674 147.74 190.59C152.275 188.268 156.276 183.081 158.781 177.342C162.209 169.488 163.939 155.283 161.507 140.057Z" fill="#1B1B27"/>
<path d="M145.014 102.686C178.455 137.259 162.337 214.636 128.876 185.933C104.474 153.911 108.155 71.089 145.014 102.686Z" fill="#1B1B27"/>
<path d="M38.7171 256.452C48.5084 265.586 55.0876 281.024 60.2866 295.09C65.8432 310.123 69.9479 323.876 74.7769 333.351C79.8187 343.245 84.0896 349.882 89.1706 355.529C94.267 361.193 100.465 366.182 109.765 372.461L120.274 379.557L109.285 385.878C105.531 388.038 101.921 390.357 98.0304 392.815C94.2044 395.233 90.1568 397.752 85.8425 400.068C33.6495 428.098 -55.2734 437.207 -122.159 359.289L-122.305 359.119L-122.441 358.941C-131.172 347.524 -138.212 335.174 -143.125 322.567C-148.337 309.455 -152.371 293.725 -154.266 278.439C-156.147 263.273 -156.021 247.773 -152.274 235.498L-152.273 235.498C-151.448 232.794 -149.609 230.219 -148.203 228.421C-146.603 226.373 -144.669 224.235 -142.763 222.262C-138.986 218.354 -134.811 214.576 -132.533 212.793L-132.151 212.496C-128.202 209.442 -124.096 206.832 -119.907 205.351C-115.433 203.771 -110.409 203.338 -105.481 205.508C-100.721 207.604 -97.2903 211.591 -94.7239 216.252C-92.1616 220.906 -90.1016 226.875 -88.3593 234.052C-79.9651 266.773 -68.4456 277.045 -58.203 279.458C-52.7077 280.753 -46.3695 280.153 -39.0399 277.854C-31.704 275.553 -23.9009 271.719 -15.7051 267.133L-15.7047 267.133C-11.9418 265.028 -2.96435 258.895 5.70962 255.239C14.5687 251.505 26.6833 248.64 37.5654 255.56L38.1824 255.953L38.7171 256.452ZM67.727 336.943C57.5142 316.903 49.7764 277.589 33.3201 262.237L32.969 262.019C18.0517 252.977 -2.18205 268.636 -11.8407 274.039C-45.2436 292.727 -78.8426 303.022 -96.0297 235.995C-102.694 208.472 -112.527 207.188 -127.656 219.025C-131.478 222.016 -143.26 233.068 -144.706 237.809C-151.273 259.321 -145.677 294.754 -135.753 319.695C-131.129 331.56 -124.469 343.265 -116.156 354.136C-52.3388 428.478 32.2111 419.888 82.0975 393.097C90.1919 388.752 97.4703 383.545 105.338 379.019C86.5653 366.344 78.4046 357.667 68.2139 337.893L67.727 336.943Z" fill="#1B1B27"/>
</svg>
