<svg width="176" height="205" viewBox="0 0 176 205" fill="none" xmlns="http://www.w3.org/2000/svg">
<path d="M26.943 11.6403C22.6563 15.3106 18.5104 20.6978 15.6602 25.4159C1.16253 49.4173 -1.60486 93.2678 1.67791 114.296C5.95693 141.712 18.2264 162.669 36.2492 179.212L36.7218 179.644C46.6739 188.674 58.4843 196.107 72.0003 200.419C90.7183 206.391 111.471 207.701 135.529 194.922L135.981 194.66C140.649 191.939 145.193 188.86 149.458 185.137C161.441 174.681 168.446 162.989 172.543 149.45L172.639 149.13C180.578 122.538 171.442 96.9004 161.467 79.0212L161.231 78.6002C158.729 74.1519 155.775 70.0051 152.935 65.8414C134.976 39.5066 91.6501 -2.80412 52.6876 0.40931L52.2295 0.449155C43.6907 1.23272 35.0286 4.46277 26.943 11.6403ZM18.9584 27.4082C21.6692 22.9208 25.5663 17.8915 29.4489 14.5672L29.4751 14.5447L29.5009 14.5218C36.9434 7.91515 44.8221 4.9985 52.5809 4.2865C70.6926 2.62487 90.3914 11.6761 108.168 24.9724C125.564 37.984 140.485 54.5897 149.334 67.4054L149.751 68.0129L149.751 68.0132C152.654 72.2694 155.475 76.2279 157.872 80.4898C167.735 98.0246 176.507 122.703 168.946 148.028C165.06 161.048 158.421 172.203 146.925 182.234L146.924 182.234C142.775 185.855 138.315 188.862 133.662 191.551C110.734 203.709 91.109 202.471 73.1719 196.748L72.8648 196.649C59.8786 192.451 48.4876 185.215 38.8552 176.373L38.4482 175.998C21.3948 160.201 9.77492 140.322 5.58368 114.321L5.48531 113.701C3.91301 103.629 3.76362 87.7842 5.82453 71.4527C7.89118 55.0757 12.1171 38.7342 18.9584 27.4082Z" fill="#1B1B27"/>
<path d="M25.0436 12.7705C24.0923 13.7372 23.1739 14.7391 22.293 15.7736L22.2928 15.7736C7.30339 33.2817 3.5165 58.2983 1.36561 75.7867L1.16214 77.4552L1.16215 77.4554C-4.56864 124.851 11.225 161.675 41.1805 184.664L45.6215 187.046L47.8111 185.88C56.4985 181.253 62.0555 173.74 66.092 165.866C70.0668 158.113 72.8362 149.403 75.4719 142.549C76.8283 139.021 78.1537 135.949 79.6186 133.431C81.0865 130.907 82.5734 129.153 84.1484 128.065C86.8621 126.189 91.1156 125.469 99.4027 129.933L99.4037 129.933C102.901 131.816 106.369 133.723 109.828 135.662L109.955 135.733L110.086 135.794C113.644 137.449 117.187 138.944 120.591 139.753C124.029 140.571 127.604 140.761 131.084 139.509C138.099 136.986 142.734 129.421 146.291 116.765C146.816 114.897 147.436 112.447 148.283 110.037C149.18 107.484 150.075 105.77 150.792 105.055L150.792 105.055C152.037 103.812 153.14 103.504 154.151 103.519C155.32 103.537 156.745 104.005 158.392 104.98C161.764 106.975 164.696 110.212 166.559 112.1L174.839 119.239L173.055 108.522C168.229 87.6799 156.923 70.9404 145.596 55.9782L145.198 55.4567C136.755 44.4479 122.119 29.8513 105.369 18.4216C88.4888 6.90333 68.6731 -1.93847 50.5378 0.367822C41.5787 1.50677 33.1921 5.21987 25.1722 12.6456L25.1065 12.7065L25.0436 12.7705ZM25.2197 18.2794C26.0416 17.3138 26.8999 16.3775 27.79 15.4729L28.1395 15.152C35.4822 8.46787 43.0188 5.20815 51.0233 4.19057L51.4149 4.14263C84.7312 0.233395 126.335 36.9194 142.523 58.3043C153.792 73.189 164.668 89.3852 169.301 109.392C165.944 105.992 155.879 94.5368 148.07 102.327C145.28 105.112 143.563 112.231 142.581 115.723C135.525 140.827 125.792 138.853 111.712 132.3C108.235 130.351 104.748 128.434 101.231 126.54C65.7774 107.442 76.8392 165.802 46.1807 182.382L46.0002 182.479C17.1391 160.33 -0.581735 123.979 4.98769 77.9175C7.12939 60.2163 10.6169 35.3361 25.2197 18.2794Z" fill="#1B1B27"/>
<path d="M28.4123 46.0426C15.8176 57.0763 15.0121 78.5355 19.1017 87.9047C21.9145 94.3497 28.846 101.595 38.6451 94.2163L38.8252 94.0419C53.9977 79.1523 51.2724 29.7159 28.6801 45.8491L28.4123 46.0426ZM21.3055 68.2051C22.4717 60.906 25.4964 53.7917 30.8211 49.0556C33.2707 47.2876 35.1213 46.6457 36.4169 46.5277C37.6268 46.4174 38.5778 46.7358 39.4543 47.4334C41.4892 49.0531 43.3195 52.9407 44.0941 58.8162C44.8401 64.475 44.4856 71.1357 43.0335 77.2206C41.5892 83.2731 39.1724 88.2921 36.144 91.2743C34.1929 92.7061 32.604 93.2727 31.3779 93.4252C30.1411 93.579 29.0412 93.3423 28.0102 92.8144C25.8015 91.6834 23.8531 89.1575 22.6334 86.3628C20.9639 82.5378 20.1209 75.6201 21.3055 68.2051Z" fill="#1B1B27"/>
<path d="M29.337 50.0063C13.0521 66.8426 20.9018 104.525 37.1964 90.5465C49.0798 74.9524 47.2864 34.6193 29.337 50.0063Z" fill="#1B1B27"/>
<path d="M81.1036 124.889C76.3355 129.337 73.1316 136.855 70.5999 143.705C67.894 151.026 65.8952 157.723 63.5436 162.338C61.0884 167.156 59.0086 170.388 56.5342 173.138C54.0524 175.896 51.0339 178.326 46.5051 181.384L41.3875 184.839L46.7391 187.918C48.5672 188.969 50.325 190.099 52.2199 191.296C54.0832 192.473 56.0543 193.7 58.1554 194.828C83.573 208.479 126.878 212.915 159.45 174.971L159.521 174.888L159.587 174.802C163.839 169.242 167.267 163.227 169.659 157.088C172.197 150.703 174.162 143.042 175.084 135.598C176 128.213 175.939 120.665 174.114 114.686L174.114 114.686C173.712 113.37 172.816 112.116 172.132 111.24C171.352 110.243 170.41 109.202 169.482 108.241C167.643 106.337 165.61 104.498 164.5 103.63L164.314 103.485C162.391 101.997 160.391 100.726 158.351 100.005C156.172 99.2355 153.726 99.0249 151.326 100.081C149.008 101.102 147.337 103.044 146.088 105.314C144.84 107.58 143.837 110.487 142.988 113.982C138.901 129.917 133.291 134.919 128.303 136.094C125.627 136.724 122.54 136.432 118.971 135.313C115.398 134.192 111.598 132.324 107.607 130.091L107.607 130.091C105.774 129.066 101.402 126.079 97.1779 124.299C92.8636 122.48 86.9639 121.085 81.6645 124.455L81.364 124.646L81.1036 124.889ZM66.9769 164.087C71.9502 154.328 75.7181 135.182 83.732 127.707L83.903 127.6C91.1674 123.197 101.021 130.823 105.725 133.454C121.992 142.555 138.354 147.569 146.724 114.928C149.969 101.525 154.757 100.899 162.125 106.664C163.987 108.121 169.724 113.503 170.428 115.812C173.627 126.288 170.902 143.544 166.069 155.689C163.817 161.467 160.574 167.167 156.526 172.461C125.448 208.664 84.2734 204.481 59.9791 191.433C56.0372 189.317 52.4926 186.781 48.661 184.577C57.8031 178.405 61.7772 174.18 66.7398 164.55L66.9769 164.087Z" fill="#1B1B27"/>
</svg>
