<svg xmlns="http://www.w3.org/2000/svg" version="1.1" xmlns:xlink="http://www.w3.org/1999/xlink" width="32" height="32"><svg xmlns="http://www.w3.org/2000/svg" version="1.1" xmlns:xlink="http://www.w3.org/1999/xlink" width="32" height="32"><svg width="32" height="32" viewBox="0 0 32 32" fill="none" xmlns="http://www.w3.org/2000/svg">
<rect width="32" height="32" rx="16" fill="#2D1735"></rect>
<path d="M6.40761 11.236C6.69435 11.2484 6.98447 11.24 7.27158 11.2394L8.72706 11.2379L15.013 11.2381C15.7525 11.2374 16.376 11.2251 17.1025 11.3994C17.136 11.4074 17.1694 11.4156 17.2028 11.4241C17.2361 11.4327 17.2694 11.4415 17.3026 11.4506C17.3357 11.4597 17.3688 11.4691 17.4018 11.4788C17.4348 11.4884 17.4677 11.4984 17.5005 11.5087C17.5333 11.5189 17.566 11.5294 17.5986 11.5403C17.6312 11.5511 17.6637 11.5622 17.6961 11.5736C17.7285 11.5849 17.7608 11.5966 17.7929 11.6085C17.8251 11.6205 17.8571 11.6327 17.8891 11.6452C17.921 11.6577 17.9528 11.6704 17.9845 11.6835C18.0162 11.6965 18.0477 11.7098 18.0791 11.7234C18.1105 11.737 18.1418 11.7508 18.173 11.765C18.2041 11.7791 18.2351 11.7935 18.266 11.8082C18.2969 11.8228 18.3276 11.8377 18.3582 11.8529C18.3888 11.8681 18.4192 11.8836 18.4495 11.8993C18.4798 11.915 18.5099 11.931 18.5399 11.9473C18.5698 11.9635 18.5996 11.98 18.6293 11.9968C18.659 12.0135 18.6884 12.0306 18.7178 12.0478C18.7471 12.0651 18.7762 12.0826 18.8052 12.1004C18.8342 12.1182 18.863 12.1362 18.8916 12.1545C18.9203 12.1727 18.9487 12.1913 18.977 12.21C19.0053 12.2288 19.0334 12.2478 19.0613 12.2671C19.0892 12.2863 19.1169 12.3058 19.1444 12.3255C19.172 12.3453 19.1993 12.3652 19.2264 12.3854C19.2536 12.4056 19.2805 12.4261 19.3073 12.4468C19.334 12.4674 19.3606 12.4883 19.3869 12.5095C19.4132 12.5306 19.4394 12.5519 19.4653 12.5735C19.4912 12.5951 19.517 12.6169 19.5425 12.6389C19.568 12.661 19.5933 12.6832 19.6183 12.7057C19.6434 12.7281 19.6683 12.7508 19.6929 12.7737C19.7175 12.7966 19.7419 12.8197 19.7661 12.843C19.7903 12.8664 19.8143 12.8899 19.838 12.9136C19.8617 12.9373 19.8852 12.9613 19.9085 12.9854C19.9393 13.0174 19.9697 13.0497 19.9997 13.0824C20.0297 13.1151 20.0593 13.1481 20.0884 13.1815C20.1176 13.2148 20.1463 13.2485 20.1746 13.2825C20.2028 13.3165 20.2307 13.3509 20.2581 13.3855C20.2855 13.4202 20.3124 13.4551 20.3389 13.4904C20.3654 13.5257 20.3914 13.5612 20.417 13.5971C20.4426 13.633 20.4677 13.6691 20.4924 13.7056C20.517 13.742 20.5412 13.7788 20.5649 13.8158C20.5886 13.8528 20.6119 13.89 20.6346 13.9276C20.6574 13.9651 20.6796 14.0029 20.7014 14.0409C20.7232 14.079 20.7445 14.1173 20.7653 14.1558C20.786 14.1943 20.8063 14.2331 20.8261 14.2721C20.846 14.3111 20.8653 14.3503 20.884 14.3898C20.9028 14.4292 20.9211 14.4689 20.939 14.5087C20.9567 14.5486 20.9739 14.5887 20.9907 14.6289C21.0074 14.6692 21.0237 14.7096 21.0393 14.7502C21.0551 14.7909 21.0703 14.8317 21.0849 14.8727C21.0996 14.9137 21.1137 14.9548 21.1272 14.9961C21.1408 15.0374 21.1539 15.0789 21.1665 15.1205C21.179 15.1621 21.191 15.2038 21.2024 15.2457C21.2139 15.2876 21.2248 15.3296 21.2352 15.3717C21.2456 15.4138 21.2554 15.4561 21.2647 15.4984C21.274 15.5408 21.2828 15.5832 21.291 15.6258C21.2992 15.6684 21.3069 15.711 21.314 15.7537C21.321 15.7965 21.3276 15.8393 21.3336 15.8821C21.3397 15.925 21.3451 15.968 21.35 16.011C21.3549 16.054 21.3592 16.097 21.363 16.1402C21.3669 16.1833 21.3701 16.2264 21.3727 16.2696C21.3754 16.3128 21.3776 16.356 21.3792 16.3992C21.3808 16.4424 21.3818 16.4857 21.3823 16.5289C21.3827 16.5722 21.3826 16.6154 21.3819 16.6587C21.3813 16.702 21.3801 16.7452 21.3784 16.7884C21.3766 16.8328 21.3743 16.8771 21.3712 16.9215C21.3683 16.9658 21.3648 17.0101 21.3607 17.0543C21.3566 17.0986 21.3519 17.1427 21.3466 17.1869C21.3413 17.231 21.3354 17.2751 21.3289 17.3191C21.3225 17.3631 21.3155 17.407 21.3078 17.4508C21.3003 17.4946 21.2921 17.5384 21.2834 17.582C21.2746 17.6256 21.2653 17.6692 21.2553 17.7126C21.2455 17.756 21.235 17.7993 21.224 17.8424C21.2129 17.8856 21.2013 17.9287 21.1892 17.9715C21.1769 18.0144 21.1642 18.0572 21.1509 18.0998C21.1376 18.1424 21.1238 18.1848 21.1094 18.2271C21.0949 18.2693 21.0799 18.3114 21.0643 18.3534C21.0488 18.3953 21.0328 18.437 21.0161 18.4785C20.9995 18.5201 20.9823 18.5614 20.9646 18.6025C20.9469 18.6437 20.9286 18.6846 20.9098 18.7253C20.891 18.766 20.8716 18.8065 20.8517 18.8467C20.8319 18.887 20.8116 18.927 20.7906 18.9668C20.7697 19.0065 20.7482 19.046 20.7263 19.0853C20.7043 19.1246 20.6818 19.1636 20.6588 19.2023C20.6358 19.241 20.6123 19.2795 20.5883 19.3177C20.5643 19.3559 20.5398 19.3937 20.5148 19.4314C20.4898 19.469 20.4643 19.5063 20.4383 19.5433C20.4123 19.5803 20.3859 19.617 20.3589 19.6533C20.3319 19.6897 20.3045 19.7258 20.2766 19.7615C20.2487 19.7972 20.2203 19.8327 20.1915 19.8677C20.1626 19.9028 20.1333 19.9375 20.1036 19.9719C20.0738 20.0063 20.0436 20.0403 20.013 20.0739C19.9823 20.1076 19.9512 20.1409 19.9197 20.1739C19.8882 20.2068 19.8562 20.2393 19.8238 20.2715C19.7914 20.3037 19.7586 20.3355 19.7254 20.3669C19.6922 20.3983 19.6585 20.4293 19.6245 20.46C19.5904 20.4906 19.556 20.5208 19.5212 20.5506C19.4868 20.58 19.452 20.609 19.4169 20.6376C19.3818 20.6663 19.3463 20.6944 19.3104 20.7222C19.2746 20.75 19.2383 20.7774 19.2018 20.8043C19.1652 20.8313 19.1283 20.8578 19.091 20.8839C19.0538 20.91 19.0162 20.9356 18.9782 20.9609C18.9403 20.9861 18.9021 21.0109 18.8635 21.0352C18.8249 21.0595 18.786 21.0834 18.7468 21.1068C18.7076 21.1302 18.6681 21.1532 18.6283 21.1757C18.5886 21.1982 18.5485 21.2202 18.5081 21.2418C18.4677 21.2634 18.4271 21.2845 18.3862 21.3051C18.3453 21.3258 18.3041 21.3459 18.2627 21.3656C18.2212 21.3853 18.1795 21.4045 18.1376 21.4232C18.0956 21.4419 18.0535 21.4601 18.011 21.4778C17.9686 21.4955 17.926 21.5128 17.8831 21.5295C17.8403 21.5462 17.7972 21.5625 17.7539 21.5782C17.7107 21.594 17.6672 21.6092 17.6235 21.6239C17.5798 21.6386 17.5359 21.6528 17.4919 21.6666C17.4478 21.6803 17.4036 21.6934 17.3592 21.7061C17.3148 21.7188 17.2703 21.731 17.2256 21.7426C17.1809 21.7543 17.136 21.7654 17.091 21.776C17.046 21.7866 17.0009 21.7966 16.9556 21.8062C16.9104 21.8158 16.865 21.8248 16.8195 21.8333C16.774 21.8418 16.7284 21.8497 16.6827 21.8572C16.637 21.8646 16.5912 21.8715 16.5453 21.8779C16.4994 21.8843 16.4535 21.8901 16.4074 21.8954C16.3614 21.9007 16.3153 21.9055 16.2692 21.9097C16.223 21.914 16.1768 21.9177 16.1305 21.9208C16.0843 21.924 16.038 21.9266 15.9917 21.9287C15.9453 21.9308 15.899 21.9324 15.8526 21.9334C15.8063 21.9344 15.7599 21.9348 15.7135 21.9348C15.6671 21.9347 15.6208 21.9341 15.5744 21.933C15.5281 21.9318 15.4817 21.9301 15.4354 21.9279C15.389 21.9257 15.3426 21.923 15.2963 21.9197C15.2499 21.9164 15.2036 21.9126 15.1574 21.9082C15.1111 21.9038 15.065 21.8989 15.0188 21.8935C14.9727 21.888 14.9267 21.8821 14.8807 21.8756C14.8348 21.869 14.7889 21.862 14.7431 21.8544C14.6974 21.8468 14.6517 21.8387 14.6061 21.83C14.5606 21.8214 14.5151 21.8122 14.4698 21.8025C14.4245 21.7928 14.3793 21.7826 14.3342 21.7718C14.2892 21.761 14.2442 21.7498 14.1995 21.7379C14.1547 21.7261 14.1101 21.7138 14.0657 21.7009C14.0212 21.6881 13.977 21.6747 13.9329 21.6608C13.8888 21.647 13.8449 21.6326 13.8012 21.6177C13.7575 21.6028 13.714 21.5873 13.6706 21.5714C13.6273 21.5555 13.5842 21.5391 13.5413 21.5222C13.4985 21.5052 13.4558 21.4878 13.4134 21.4699C13.371 21.452 13.3288 21.4335 13.2868 21.4146C13.2449 21.3957 13.2032 21.3764 13.1617 21.3565C13.1203 21.3366 13.0791 21.3162 13.0382 21.2954C12.9973 21.2746 12.9567 21.2533 12.9163 21.2315C12.8759 21.2097 12.8359 21.1874 12.7961 21.1647C12.7563 21.142 12.7169 21.1188 12.6777 21.0952C12.6385 21.0715 12.5997 21.0475 12.5611 21.0229C12.5226 20.9984 12.4844 20.9734 12.4465 20.9479C12.4086 20.9225 12.3711 20.8966 12.3339 20.8703C12.2966 20.844 12.2598 20.8173 12.2233 20.7901C12.1868 20.7629 12.1506 20.7353 12.1148 20.7073C12.079 20.6793 12.0436 20.6509 12.0086 20.622C11.9735 20.5932 11.9388 20.5639 11.9046 20.5343C11.8703 20.5047 11.8364 20.4746 11.8029 20.4442C11.7694 20.4137 11.7363 20.3829 11.7036 20.3517C11.6709 20.3205 11.6386 20.2889 11.6067 20.2569C11.5748 20.225 11.5434 20.1926 11.5124 20.16C11.487 20.1334 11.462 20.1067 11.4373 20.0797C11.4125 20.0526 11.3881 20.0254 11.3639 19.9979C11.3397 19.9705 11.3159 19.9428 11.2923 19.9148C11.2687 19.8869 11.2454 19.8587 11.2225 19.8304C11.1995 19.802 11.1768 19.7734 11.1545 19.7446C11.1321 19.7158 11.1101 19.6868 11.0883 19.6576C11.0666 19.6284 11.0451 19.5989 11.024 19.5693C11.0029 19.5397 10.9821 19.5098 10.9616 19.4798C10.9411 19.4498 10.921 19.4195 10.9012 19.3891C10.8813 19.3587 10.8618 19.3281 10.8426 19.2973C10.8235 19.2666 10.8046 19.2356 10.7861 19.2044C10.7676 19.1733 10.7494 19.142 10.7315 19.1105C10.7137 19.079 10.6962 19.0473 10.679 19.0155C10.6618 18.9837 10.645 18.9517 10.6285 18.9196C10.612 18.8874 10.5959 18.8551 10.5801 18.8227C10.5643 18.7902 10.5488 18.7576 10.5337 18.7249C10.5186 18.6921 10.5038 18.6592 10.4894 18.6262C10.475 18.5932 10.461 18.56 10.4473 18.5267C10.4336 18.4934 10.4202 18.46 10.4073 18.4264C10.3943 18.3929 10.3817 18.3592 10.3694 18.3254C10.3571 18.2916 10.3452 18.2577 10.3337 18.2237C10.3222 18.1897 10.311 18.1555 10.3002 18.1213C10.2894 18.0871 10.2789 18.0527 10.2688 18.0183C10.2588 17.9839 10.2491 17.9493 10.2397 17.9147C10.2304 17.8801 10.2214 17.8454 10.2128 17.8106C10.2042 17.7758 10.196 17.741 10.1881 17.706C10.1803 17.6711 10.1728 17.6361 10.1657 17.601C10.1586 17.5659 10.1518 17.5307 10.1455 17.4955C10.1391 17.4603 10.1331 17.425 10.1275 17.3897C10.1219 17.3544 10.1167 17.319 10.1119 17.2836C10.107 17.2481 10.1025 17.2127 10.0984 17.1771C10.0943 17.1416 10.0906 17.1061 10.0873 17.0705C10.043 16.6009 10.0596 16.1256 10.0597 15.6544L10.0559 13.6309L7.74419 13.6301C7.29814 13.6301 6.85003 13.6382 6.40429 13.6251L6.40388 16.2981C6.4018 16.6507 6.40366 17.0033 6.40948 17.3559C6.4134 17.5046 6.41149 17.6557 6.42916 17.8037C6.60997 19.3186 7.29534 20.7978 8.25024 22.0166C8.29696 22.0752 8.34443 22.1332 8.39267 22.1907C8.4409 22.2483 8.48987 22.3052 8.53957 22.3615C8.58929 22.4179 8.63973 22.4737 8.69089 22.5289C8.74205 22.584 8.79392 22.6386 8.8465 22.6926C8.89908 22.7465 8.95235 22.7999 9.00631 22.8526C9.06029 22.9053 9.11493 22.9574 9.17024 23.0089C9.22557 23.0604 9.28155 23.1113 9.3382 23.1614C9.39484 23.2116 9.45213 23.2611 9.51007 23.3099C9.568 23.3588 9.62656 23.4069 9.68574 23.4543C9.74493 23.5018 9.80472 23.5486 9.86511 23.5947C9.92552 23.6408 9.9865 23.6862 10.0481 23.7308C10.1097 23.7755 10.1718 23.8194 10.2345 23.8626C10.2973 23.9059 10.3605 23.9484 10.4244 23.9902C10.4882 24.032 10.5526 24.073 10.6174 24.1132C10.6823 24.1535 10.7478 24.193 10.8137 24.2317C10.8796 24.2705 10.946 24.3085 11.0129 24.3458C11.0798 24.383 11.1472 24.4193 11.2151 24.4549C11.2829 24.4906 11.3512 24.5254 11.42 24.5594C11.4888 24.5936 11.558 24.6268 11.6276 24.6592C11.6972 24.6917 11.7672 24.7233 11.8377 24.7541C11.9081 24.7849 11.979 24.815 12.0502 24.8442C12.1214 24.8733 12.193 24.9016 12.265 24.9291C12.337 24.9567 12.4093 24.9834 12.482 25.0091C12.5546 25.035 12.6276 25.06 12.7009 25.0842C12.7742 25.1083 12.8478 25.1316 12.9217 25.154C12.9957 25.1765 13.0699 25.198 13.1443 25.2187C13.2188 25.2394 13.2935 25.2593 13.3685 25.2783C13.4435 25.2972 13.5188 25.3153 13.5942 25.3325C13.6697 25.3497 13.7454 25.3661 13.8213 25.3816C13.8971 25.397 13.9732 25.4116 14.0495 25.4253C14.1258 25.439 14.2022 25.4518 14.2788 25.4637C14.3554 25.4757 14.4321 25.4867 14.509 25.4968C14.9296 25.5523 15.2899 25.6007 15.7135 25.6C16.048 25.5996 16.5228 25.5522 16.8471 25.5258C18.4772 25.3932 20.2073 24.7084 21.5071 23.7799C21.6567 23.6729 21.8029 23.5619 21.9457 23.447C22.0886 23.332 22.2279 23.2132 22.3634 23.0906C22.4989 22.9681 22.6305 22.8419 22.7583 22.712C22.8861 22.5823 23.0098 22.4491 23.1294 22.3124C23.2911 22.1299 23.4315 21.9306 23.5948 21.7501C23.9395 21.72 24.2758 21.6396 24.6064 21.5449C25.8823 21.1794 27.1014 20.4848 27.9596 19.5112C28.0159 19.4473 28.1535 19.3072 28.16 19.2288C28.0879 19.1593 27.2585 18.7779 27.0741 18.6871C26.4515 18.3807 25.834 18.0611 25.2065 17.7642C25.2162 17.6915 25.225 17.6188 25.2328 17.546C25.2407 17.4732 25.2476 17.4003 25.2535 17.3273C25.2595 17.2543 25.2645 17.1813 25.2685 17.1082C25.2726 17.0351 25.2757 16.962 25.2779 16.8888C25.28 16.8156 25.2812 16.7425 25.2814 16.6693C25.2817 16.5961 25.2811 16.5229 25.2795 16.4497C25.2779 16.3765 25.2753 16.3034 25.2717 16.2303C25.2682 16.1571 25.2638 16.0841 25.2584 16.0111C25.253 15.938 25.2466 15.8651 25.2393 15.7922C25.2319 15.7194 25.2236 15.6466 25.2145 15.5739C25.2053 15.5012 25.1952 15.4287 25.1841 15.3562C25.1731 15.2838 25.1611 15.2115 25.1481 15.1393C25.1352 15.0671 25.1213 14.9951 25.1066 14.9233C25.0918 14.8515 25.0761 14.7798 25.0594 14.7083C25.0427 14.6368 25.0251 14.5655 25.0066 14.4945C24.9881 14.4234 24.9687 14.3525 24.9484 14.2819C24.9281 14.2113 24.9068 14.1409 24.8846 14.0708C24.8625 14.0006 24.8394 13.9308 24.8154 13.8612C24.7915 13.7916 24.7667 13.7223 24.7408 13.6532C24.7151 13.5842 24.6885 13.5155 24.6609 13.4471C24.6333 13.3786 24.6049 13.3106 24.5756 13.2428C24.5463 13.1751 24.5161 13.1077 24.4851 13.0406C24.4541 12.9735 24.4222 12.9069 24.3895 12.8405C24.3566 12.7742 24.3229 12.7083 24.2884 12.6427C24.254 12.5772 24.2187 12.5121 24.1826 12.4474C24.1463 12.3826 24.1093 12.3183 24.0715 12.2545C24.0336 12.1906 23.995 12.1272 23.9555 12.0642C23.9161 12.0012 23.8758 11.9387 23.8347 11.8767C23.7937 11.8146 23.7518 11.7531 23.7091 11.692C23.6664 11.6309 23.6229 11.5703 23.5786 11.5103C23.5343 11.4502 23.4893 11.3907 23.4435 11.3316C23.3978 11.2726 23.3512 11.2141 23.3039 11.1562C23.2561 11.0977 23.2075 11.0398 23.1581 10.9825C23.1088 10.9252 23.0587 10.8685 23.0078 10.8123C22.957 10.7562 22.9055 10.7006 22.8533 10.6457C22.8009 10.5908 22.7479 10.5364 22.6942 10.4827C22.6405 10.429 22.5861 10.376 22.5311 10.3236C22.476 10.2711 22.4202 10.2194 22.3637 10.1682C22.3073 10.1171 22.2502 10.0667 22.1924 10.0169C22.1346 9.9671 22.0762 9.918 22.0171 9.86957C21.9581 9.82116 21.8984 9.77344 21.8381 9.72641C21.7777 9.67939 21.7168 9.63308 21.6553 9.58749C21.5938 9.54188 21.5317 9.49701 21.469 9.45287C21.4063 9.40873 21.343 9.36532 21.2791 9.32266C21.2154 9.27999 21.151 9.23808 21.086 9.19692C21.0212 9.15577 20.9557 9.11538 20.8897 9.07575C20.8237 9.03612 20.7572 8.99727 20.6902 8.95921C20.6232 8.92113 20.5557 8.88385 20.4877 8.84735C20.4197 8.81086 20.3513 8.77517 20.2823 8.74029C20.2134 8.70539 20.1441 8.67131 20.0742 8.63804C20.0044 8.60477 19.9342 8.57232 19.8635 8.54069C19.7929 8.50907 19.7218 8.47828 19.6503 8.44832C19.5789 8.41836 19.507 8.38923 19.4348 8.36095C19.3626 8.33267 19.29 8.30523 19.217 8.27864C19.1441 8.25206 19.0708 8.22634 18.9972 8.20147C18.9235 8.1766 18.8496 8.15259 18.7753 8.12945C18.7011 8.10631 18.6266 8.08405 18.5517 8.06265C18.4769 8.04125 18.4018 8.02073 18.3264 8.0011C18.251 7.98146 18.1754 7.9627 18.0996 7.94483C18.0237 7.92696 17.9476 7.90998 17.8713 7.89389C17.795 7.8778 17.7185 7.8626 17.6418 7.8483C17.5651 7.834 17.4882 7.8206 17.4111 7.8081C17.3341 7.7956 17.2568 7.784 17.1795 7.7733C17.1021 7.76261 17.0246 7.75282 16.947 7.74393C16.3451 7.67364 15.744 7.68202 15.139 7.68201L6.40466 7.68005L6.40419 9.98615C6.40429 10.4017 6.39278 10.8208 6.40761 11.236ZM15.842 18.4499C15.8758 18.4477 15.9095 18.4447 15.9432 18.4409C15.9769 18.4371 16.0105 18.4325 16.0439 18.4272C16.0773 18.4218 16.1106 18.4157 16.1437 18.4088C16.1769 18.4019 16.2098 18.3943 16.2425 18.3858C16.2752 18.3774 16.3077 18.3682 16.3399 18.3583C16.3722 18.3484 16.4042 18.3377 16.4359 18.3263C16.4675 18.3148 16.4989 18.3027 16.53 18.2898C16.561 18.2769 16.5917 18.2633 16.6221 18.249C16.6524 18.2347 16.6824 18.2197 16.712 18.204C16.7415 18.1883 16.7707 18.172 16.7994 18.1549C16.8281 18.1379 16.8564 18.1201 16.8842 18.1018C16.9119 18.0834 16.9393 18.0644 16.9661 18.0448C16.9929 18.0252 17.0192 18.0049 17.0449 17.9841C17.0707 17.9632 17.0959 17.9418 17.1205 17.9197C17.1451 17.8977 17.1692 17.8751 17.1926 17.852C17.2161 17.8288 17.239 17.8052 17.2612 17.781C17.2834 17.7568 17.305 17.7321 17.326 17.7069C17.3469 17.6817 17.3672 17.656 17.3868 17.6298C17.4064 17.6037 17.4253 17.5771 17.4436 17.5501C17.4618 17.523 17.4793 17.4956 17.4961 17.4678C17.5129 17.4399 17.529 17.4117 17.5443 17.3831C17.5596 17.3545 17.5742 17.3256 17.5881 17.2963C17.6019 17.2671 17.6149 17.2375 17.6272 17.2076C17.6395 17.1778 17.651 17.1476 17.6618 17.1172C17.6725 17.0868 17.6824 17.0562 17.6915 17.0253C17.7007 16.9944 17.709 16.9634 17.7165 16.9321C17.724 16.9009 17.7307 16.8695 17.7366 16.8379C17.7424 16.8063 17.7475 16.7746 17.7517 16.7428C17.756 16.711 17.7594 16.6792 17.7619 16.6472C17.7645 16.6153 17.7662 16.5833 17.7671 16.5512C17.7681 16.5192 17.7681 16.4871 17.7674 16.4551C17.7666 16.4231 17.765 16.3911 17.7626 16.3591C17.7602 16.3271 17.7569 16.2952 17.7528 16.2634C17.7487 16.2316 17.7438 16.1999 17.7381 16.1683C17.7324 16.1367 17.7258 16.1053 17.7184 16.074C17.7111 16.0427 17.7029 16.0116 17.6939 15.9807C17.6849 15.9498 17.6751 15.9191 17.6646 15.8887C17.654 15.8582 17.6426 15.828 17.6305 15.7981C17.6183 15.7682 17.6054 15.7386 17.5917 15.7093C17.578 15.6799 17.5635 15.6509 17.5483 15.6223C17.5331 15.5936 17.5172 15.5654 17.5005 15.5374C17.4838 15.5095 17.4665 15.482 17.4484 15.4549C17.4302 15.4278 17.4114 15.4012 17.392 15.3749C17.3725 15.3487 17.3523 15.323 17.3315 15.2977C17.3106 15.2724 17.2892 15.2476 17.267 15.2233C17.2449 15.199 17.2222 15.1752 17.1988 15.152C17.1755 15.1287 17.1515 15.1061 17.127 15.0839C17.1024 15.0618 17.0773 15.0403 17.0517 15.0193C17.026 14.9984 16.9998 14.978 16.9731 14.9583C16.9464 14.9385 16.9192 14.9194 16.8915 14.9009C16.8637 14.8825 16.8356 14.8646 16.8069 14.8475C16.7783 14.8303 16.7492 14.8138 16.7197 14.798C16.6902 14.7822 16.6603 14.7671 16.6301 14.7526C16.5998 14.7382 16.5691 14.7245 16.5381 14.7115C16.5071 14.6985 16.4758 14.6862 16.4442 14.6746C16.4125 14.6631 16.3806 14.6523 16.3484 14.6422C16.3162 14.6321 16.2838 14.6228 16.2511 14.6143C16.2184 14.6057 16.1855 14.5979 16.1525 14.5909C16.1194 14.5838 16.0861 14.5776 16.0527 14.5721C16.0193 14.5666 15.9857 14.5619 15.9521 14.558C15.9184 14.5541 15.8847 14.5509 15.8509 14.5485C15.817 14.5462 15.7832 14.5446 15.7493 14.5438C15.7154 14.543 15.6815 14.543 15.6475 14.5438C15.6136 14.5446 15.5798 14.5462 15.546 14.5485C15.5122 14.5509 15.4786 14.554 15.445 14.5579C15.4114 14.5619 15.378 14.5665 15.3447 14.572C15.3113 14.5775 15.2782 14.5837 15.2452 14.5907C15.2122 14.5977 15.1794 14.6055 15.1468 14.614C15.1142 14.6225 15.0818 14.6318 15.0497 14.6418C15.0176 14.6518 14.9857 14.6626 14.9542 14.6741C14.9226 14.6856 14.8914 14.6978 14.8604 14.7107C14.8295 14.7237 14.799 14.7373 14.7687 14.7517C14.7385 14.766 14.7087 14.7811 14.6792 14.7968C14.6498 14.8125 14.6208 14.829 14.5922 14.846C14.5636 14.8631 14.5355 14.8809 14.5078 14.8992C14.4802 14.9176 14.453 14.9367 14.4263 14.9563C14.3997 14.9759 14.3735 14.9962 14.3479 15.0171C14.3222 15.0379 14.2972 15.0594 14.2726 15.0814C14.2481 15.1034 14.2242 15.126 14.2009 15.1491C14.1775 15.1722 14.1548 15.1959 14.1327 15.2201C14.1105 15.2442 14.0891 15.2689 14.0682 15.2941C14.0474 15.3193 14.0272 15.3449 14.0077 15.371C13.9882 15.3971 13.9694 15.4237 13.9513 15.4507C13.9331 15.4777 13.9157 15.505 13.899 15.5328C13.8823 15.5606 13.8663 15.5888 13.8511 15.6173C13.8358 15.6459 13.8213 15.6747 13.8076 15.7039C13.7938 15.7331 13.7809 15.7626 13.7686 15.7924C13.7564 15.8222 13.745 15.8523 13.7343 15.8826C13.7237 15.913 13.7138 15.9435 13.7047 15.9743C13.6957 16.0051 13.6874 16.0361 13.6799 16.0673C13.6724 16.0985 13.6658 16.1298 13.66 16.1613C13.6541 16.1927 13.6491 16.2243 13.6449 16.2561C13.6407 16.2878 13.6373 16.3196 13.6348 16.3514C13.6322 16.3833 13.6305 16.4152 13.6296 16.4472C13.6287 16.4791 13.6286 16.5111 13.6294 16.543C13.6302 16.575 13.6318 16.6069 13.6342 16.6388C13.6366 16.6707 13.6398 16.7025 13.6439 16.7342C13.648 16.7659 13.6529 16.7976 13.6586 16.8291C13.6643 16.8606 13.6708 16.8919 13.6781 16.9231C13.6855 16.9543 13.6936 16.9853 13.7026 17.0162C13.7115 17.047 13.7212 17.0776 13.7318 17.108C13.7423 17.1383 13.7536 17.1684 13.7657 17.1983C13.7778 17.2281 13.7907 17.2577 13.8043 17.287C13.8179 17.3162 13.8323 17.3451 13.8474 17.3737C13.8626 17.4023 13.8784 17.4305 13.895 17.4584C13.9116 17.4862 13.9289 17.5137 13.9469 17.5407C13.965 17.5678 13.9837 17.5944 14.0031 17.6206C14.0225 17.6468 14.0425 17.6725 14.0633 17.6977C14.084 17.723 14.1054 17.7477 14.1274 17.772C14.1494 17.7963 14.172 17.82 14.1953 17.8432C14.2185 17.8664 14.2424 17.8891 14.2668 17.9112C14.2912 17.9333 14.3162 17.9549 14.3417 17.9758C14.3673 17.9968 14.3934 18.0171 14.42 18.0369C14.4465 18.0566 14.4736 18.0757 14.5012 18.0942C14.5288 18.1127 14.5569 18.1305 14.5854 18.1477C14.6139 18.1649 14.6428 18.1814 14.6722 18.1973C14.7016 18.2131 14.7314 18.2283 14.7615 18.2428C14.7917 18.2572 14.8222 18.271 14.8531 18.2841C14.8839 18.2971 14.9151 18.3094 14.9466 18.3211C14.9782 18.3327 15.0099 18.3435 15.042 18.3537C15.0741 18.3638 15.1064 18.3732 15.139 18.3818C15.1715 18.3905 15.2043 18.3984 15.2373 18.4055C15.2703 18.4126 15.3034 18.419 15.3367 18.4245C15.37 18.4301 15.4034 18.4349 15.437 18.439C15.4705 18.443 15.5042 18.4463 15.5379 18.4487C15.5716 18.4512 15.6054 18.4529 15.6392 18.4538C15.673 18.4548 15.7068 18.4549 15.7406 18.4542C15.7744 18.4536 15.8082 18.4521 15.842 18.4499Z" fill="#FFCB2D"></path>
</svg></svg><style>@media (prefers-color-scheme: light) { :root { filter: none; } }
@media (prefers-color-scheme: dark) { :root { filter: none; } }
</style></svg>