<svg width="125" height="103" viewBox="0 0 125 103" fill="none" xmlns="http://www.w3.org/2000/svg">
<path fill-rule="evenodd" clip-rule="evenodd" d="M121.269 5.6571e-05C123.661 3.31666 124.352 9.08572 123.977 12.4695C123.838 22.7767 116.887 45.6104 106.074 51.7685C105.155 52.287 104.212 52.7869 103.246 53.2677C104.791 53.0172 105.543 52.7529 107.027 53.202C107.588 54.0731 107.12 54.7227 106.676 55.4963C101.003 65.3376 80.5001 87.7782 65.7022 91.2055C63.0624 91.8169 60.4455 91.6537 57.5887 91.3119C59.1376 91.9417 60.6878 92.4651 61.8908 93.3662C62.0916 93.8584 62.3815 94.3541 61.9297 94.8104C60.2162 96.5421 53.1068 97.5176 50.184 97.6805C42.7717 98.13 35.0027 96.7282 28.2746 93.7274C25.6933 94.93 19.9577 97.7524 17.1781 98.4389C14.7513 99.478 2.58604 104.092 3.38556e-05 102.278L0.028067 101.6C1.21432 100.472 10.7676 97.2801 13.1412 96.4117C14.6137 95.4983 21.221 92.8773 23.9114 91.383C24.1383 89.5795 24.2219 87.6844 24.361 85.8589C25.0446 76.8989 27.9074 67.9332 34.9806 60.7986C36.1099 59.6601 38.9078 56.284 41.3618 57.0326C42.4246 58.2554 42.0541 59.7831 41.9484 61.1237L42.188 61.2852C43.8847 54.1901 46.7771 53.5717 53.4813 48.7696C56.869 46.2972 60.0942 43.7214 63.1477 41.0479C67.3268 37.4147 71.3549 33.6979 75.2311 29.9015C84.287 21.0272 93.116 11.7094 105.391 4.74196C110.233 1.99355 114.781 0.618046 121.269 5.6571e-05ZM120.122 2.5767C116.502 2.74709 113.985 3.22695 110.94 4.42153C108.075 14.0082 104.087 24.2785 98.7486 33.1856C85.3527 55.5368 58.8354 78.52 30.6024 92.5448C41.5225 95.3569 48.1676 96.4424 58.0453 93.6909C54.8913 91.5721 52.7034 90.0796 49.9132 87.6899C63.019 91.5955 69.0083 87.9854 76.9971 82.4367C88.3399 74.5586 96.9991 65.2608 103.858 55.1164C99.4949 55.4584 95.4686 55.7505 91.0622 55.9506C92.8376 55.2989 97.8028 53.2159 99.3816 52.8517C108.597 48.7805 111.059 44.3584 114.649 37.3058C118.948 28.8634 120.98 20.9841 121.793 11.8134C121.045 8.40787 121.737 6.6295 120.122 2.5767ZM109.059 5.47934C99.8864 9.63762 88.6318 20.5761 82.011 26.791C81.8943 31.5135 81.841 41.1833 80.5158 45.5085C79.7162 39.6455 79.1971 35.6588 79.19 29.8058C72.9947 36.0554 66.366 42.0813 59.3199 47.8666C55.7497 50.7871 48.3949 55.1 46.2983 57.9352C43.8077 61.3006 42.6505 68.788 41.5414 72.7678C40.7332 69.3788 39.8784 63.68 39.6237 60.333C36.7697 62.7705 34.2766 64.9637 32.4509 67.9287C27.5444 75.9676 27.0815 81.8661 25.8178 90.5314C60.9349 72.3802 89.3828 50.5413 103.273 20.936C104.284 18.7805 109.433 7.3733 109.059 5.47934Z" fill="#1B1B27"/>
</svg>
