<svg width="167" height="138" viewBox="0 0 167 138" fill="none" xmlns="http://www.w3.org/2000/svg">
<path fill-rule="evenodd" clip-rule="evenodd" d="M162.707 0.000108401C165.916 4.45379 166.842 12.2017 166.337 16.7462C166.148 30.5893 156.817 61.2576 142.31 69.531C141.076 70.2276 139.812 70.8992 138.516 71.5452C140.589 71.2083 141.597 70.8532 143.588 71.456C144.34 72.6257 143.713 73.4983 143.116 74.5374C135.504 87.7561 107.994 117.9 88.1414 122.507C84.6001 123.329 81.0896 123.11 77.2573 122.652C79.3349 123.498 81.4144 124.2 83.028 125.41C83.2971 126.071 83.686 126.737 83.0797 127.35C80.7806 129.676 71.2433 130.988 67.3222 131.207C57.3786 131.813 46.957 129.932 37.9322 125.904C34.4691 127.52 26.7742 131.312 23.0451 132.235C19.7893 133.631 3.46863 139.831 2.84069e-05 137.395L0.0378169 136.485C1.62945 134.969 14.4459 130.68 17.6302 129.513C19.6059 128.286 28.4701 124.764 32.0796 122.756C32.3845 120.334 32.4972 117.789 32.6842 115.337C33.6037 103.304 37.4465 91.2614 46.9369 81.6776C48.4521 80.1482 52.2064 75.6133 55.4982 76.618C56.9236 78.2601 56.4261 80.3119 56.2841 82.1124L56.6054 82.3292C58.8834 72.7997 62.7637 71.9686 71.7586 65.5173C76.3038 62.1958 80.631 58.7357 84.7279 55.1442C90.3351 50.2637 95.7397 45.2708 100.941 40.1711C113.091 28.2502 124.938 15.7336 141.406 6.37287C147.902 2.68037 154.004 0.831811 162.707 0.000108401ZM161.169 3.46094C156.312 3.69073 152.936 4.33588 148.85 5.94104C145.004 18.8171 139.652 32.6115 132.488 44.5755C114.512 74.5975 78.9331 105.472 41.0552 124.315C55.7036 128.089 64.6177 129.545 77.8691 125.847C73.6387 123.002 70.704 120.998 66.9617 117.79C84.5419 123.031 92.5773 118.181 103.296 110.727C118.514 100.144 130.133 87.654 139.336 74.0279C133.483 74.4884 128.082 74.8817 122.171 75.1517C124.553 74.2759 131.214 71.477 133.332 70.9875C145.695 65.5173 148.999 59.5776 153.817 50.1048C159.586 38.7651 162.314 28.1825 163.408 15.8657C162.405 11.2922 163.333 8.90355 161.169 3.46094ZM146.326 7.36222C134.021 12.9494 118.92 27.6432 110.036 35.9917C109.879 42.3343 109.805 55.3211 108.026 61.1304C106.955 53.2564 106.259 47.9023 106.251 40.0415C97.9389 48.4365 89.045 56.5313 79.5912 64.3031C74.8011 68.2264 64.9336 74.0206 62.1202 77.8289C58.7783 82.3495 57.2238 92.4056 55.735 97.7509C54.6517 93.1995 53.5065 85.5461 53.1658 81.0511C49.3365 84.3254 45.9915 87.2717 43.5414 91.2543C36.9573 102.052 36.3348 109.974 34.6373 121.612C81.7511 97.2252 119.919 67.8873 138.561 28.1226C139.918 25.2274 146.828 9.90578 146.326 7.36222Z" fill="#1B1B27"/>
</svg>
